<?xml version="1.0" standalone="no"?>
<!DOCTYPE svg PUBLIC "-//W3C//DTD SVG 20010904//EN"
 "http://www.w3.org/TR/2001/REC-SVG-20010904/DTD/svg10.dtd">
<svg version="1.0" xmlns="http://www.w3.org/2000/svg"
 width="32.000000pt" height="32.000000pt" viewBox="0 0 32.000000 32.000000"
 preserveAspectRatio="xMidYMid meet">
<metadata>
Created by potrace 1.16, written by Peter Selinger 2001-2019
</metadata>
<g transform="translate(0.000000,32.000000) scale(0.100000,-0.100000)"
fill="#000000" stroke="none">
<path d="M0 160 l0 -160 160 0 160 0 0 160 0 160 -160 0 -160 0 0 -160z m194
131 c-8 -8 57 -41 68 -35 6 4 9 3 6 -2 -7 -11 17 -35 26 -27 3 4 6 -28 6 -70
0 -61 -3 -77 -15 -77 -7 0 -19 -8 -24 -17 -6 -10 -11 -14 -11 -10 0 16 -40
-14 -40 -31 0 -15 -2 -15 -10 -2 -5 8 -10 10 -10 4 0 -6 -7 -11 -15 -11 -12 0
-15 15 -15 73 l0 73 -60 33 c-56 31 -74 48 -49 48 5 0 7 5 4 10 -4 6 -3 9 2 8
13 -4 73 24 68 32 -2 4 13 7 35 6 21 0 37 -2 34 -5z m-124 -147 c0 -33 3 -43
13 -38 6 4 9 4 5 -1 -5 -5 6 -17 23 -27 35 -22 33 -36 -3 -18 -48 25 -58 41
-58 92 0 30 4 47 10 43 6 -3 10 -26 10 -51z"/>
<path d="M160 271 c0 -5 -17 -19 -37 -31 l-38 -22 38 -20 38 -19 45 26 c25 15
44 28 42 30 -15 13 -88 43 -88 36z"/>
<path d="M213 169 c-27 -17 -32 -26 -31 -60 0 -21 5 -39 10 -39 5 0 6 5 2 12
-4 7 -3 8 4 4 20 -12 34 4 20 22 -10 14 -10 15 2 5 29 -27 45 -15 45 32 0 50
-5 52 -52 24z"/>
</g>
</svg>
